<svg width="900" height="240" viewBox="0 0 900 240" fill="none" xmlns="http://www.w3.org/2000/svg">
  <defs>
    <linearGradient id="cloudGateLogoGrad" x1="54" y1="48" x2="194" y2="192" gradientUnits="userSpaceOnUse">
      <stop stop-color="#6173FF"/>
      <stop offset="1" stop-color="#1ED3A8"/>
    </linearGradient>
  </defs>
  <g transform="translate(16 14)">
    <path
      d="M58 166C38.1177 166 22 150.106 22 130.5C22 113.678 33.8534 99.6685 49.7902 96.2915C55.0292 70.0813 78.5233 50 106.821 50C129.946 50 149.863 63.4216 158.977 82.8051C179.549 84.259 196 101.138 196 121.8C196 143.4 178.442 161 156.875 161H58Z"
      stroke="url(#cloudGateLogoGrad)"
      stroke-width="12"
      stroke-linecap="round"
      stroke-linejoin="round"
    />
    <path
      d="M99 94H130C142.15 94 152 103.85 152 116V146C152 158.15 142.15 168 130 168H99C86.8497 168 77 158.15 77 146V116C77 103.85 86.8497 94 99 94Z"
      stroke="url(#cloudGateLogoGrad)"
      stroke-width="10"
      stroke-linecap="round"
      stroke-linejoin="round"
    />
    <path
      d="M88 130H141"
      stroke="#10213A"
      stroke-opacity="0.14"
      stroke-width="8"
      stroke-linecap="round"
    />
  </g>
  <text
    x="252"
    y="145"
    fill="#0F172A"
    font-family="Inter, SF Pro Display, Segoe UI, sans-serif"
    font-size="84"
    font-weight="800"
    letter-spacing="-0.04em"
  >
    cloudbase
  </text>
</svg>
